<svg id="Closed" xmlns="http://www.w3.org/2000/svg" viewBox="0 0 283 205"><defs><style>.cls-1{fill:#00daff;}.cls-2{fill:#fff;}.cls-3{fill:aqua;}</style></defs><path class="cls-1" d="M595.19,466H369.81A28.81,28.81,0,0,1,341,437.19V303.81a28.82,28.82,0,0,1,23.6-28.34,14.68,14.68,0,0,0,9.15-5.88l1.69-2.32A15.21,15.21,0,0,1,387.75,261H428a15.22,15.22,0,0,1,9,3l11.27,8.29a14.08,14.08,0,0,0,8.35,2.74H595.19A28.81,28.81,0,0,1,624,303.81V437.19A28.81,28.81,0,0,1,595.19,466Z" transform="translate(-341 -261)"/><rect class="cls-2" x="14" y="20" width="254" height="86" rx="2.22"/><path class="cls-3" d="M595.19,466H369.81C353.9,466,341,453.85,341,438.86V313.17c0-13.32,10.18-24.39,23.6-26.7,3.69-.64,230.59-.44,230.59-.44C611.1,286,624,298.18,624,313.17V438.86C624,453.85,611.1,466,595.19,466Z" transform="translate(-341 -261)"/></svg>