<svg id="Open" xmlns="http://www.w3.org/2000/svg" xmlns:xlink="http://www.w3.org/1999/xlink" viewBox="0 0 327 205"><defs><style>.cls-1{fill:#00daff;}.cls-2{fill:#fff;}.cls-3{fill:url(#linear-gradient);}</style><linearGradient id="linear-gradient" x1="482.19" y1="287.02" x2="483.59" y2="554.23" gradientUnits="userSpaceOnUse"><stop offset="0" stop-color="aqua"/><stop offset="0.34" stop-color="#01fdfe"/><stop offset="0.46" stop-color="#04f6fc"/><stop offset="0.55" stop-color="#0aebf8"/><stop offset="0.62" stop-color="#12daf2"/><stop offset="0.68" stop-color="#1dc4eb"/><stop offset="0.73" stop-color="#29abe2"/></linearGradient></defs><path class="cls-1" d="M595.19,466H369.81A28.81,28.81,0,0,1,341,437.19V303.81a28.82,28.82,0,0,1,23.6-28.34,14.68,14.68,0,0,0,9.15-5.88l1.69-2.32A15.21,15.21,0,0,1,387.75,261H428a15.22,15.22,0,0,1,9,3l11.27,8.29a14.08,14.08,0,0,0,8.35,2.74H595.19A28.81,28.81,0,0,1,624,303.81V437.19A28.81,28.81,0,0,1,595.19,466Z" transform="translate(-319 -261)"/><rect class="cls-2" x="36" y="10" width="254" height="72" rx="2.22"/><path class="cls-3" d="M595.19,466H369.81C353.9,466,341,453.85,341,438.86l-22-92.69c0-13.32,10.18-24.39,23.6-26.7,3.69-.64,274.59-.44,274.59-.44C633.1,319,646,331.18,646,346.17l-22,92.69C624,453.85,611.1,466,595.19,466Z" transform="translate(-319 -261)"/></svg>